# AST/ASF file generated using VICON BodyLanguage
# -----------------------------------------------
:version 1.10
:name VICON
:units
  mass 1.0
  length 0.45
  angle deg
:documentation
   .ast/.asf automatically generated from VICON data using
   VICON BodyBuilder and BodyLanguage model FoxedUp or BRILLIANT.MOD
:root
   order TX TY TZ RX RY RZ
   axis XYZ
   position 0 0 0  
   orientation 0 0 0 
:bonedata
  begin
     id 1 
     name lhipjoint
     direction 0.78388 -0.462562 0.414208 
     length 3.01181 
     axis 0 0 0  XYZ
  end
  begin
     id 2 
     name lfemur
     direction 0.34202 -0.939693 0  
     length 6.04673  
     axis 0 0 20  XYZ
    dof rx ry rz
    limits (-160.0 20.0)
           (-70.0 70.0)
           (-60.0 70.0)
  end
  begin
     id 3 
     name ltibia
     direction 0.34202 -0.939693 0   
     length 7.211   
     axis 0 0 20   XYZ
    dof rx
    limits (-10.0 170.0)
  end
  begin
     id 4 
     name lfoot
     direction 0.121887 -0.334882 0.934344   
     length 2.13567   
     axis -90 7.62852e-016 20   XYZ
    dof rx rz
    limits (-45.0 90.0)
           (-70.0 20.0)
  end
  begin
     id 5 
     name ltoes
     direction 1.53555e-011 -4.2179e-011 1   
     length 1.05957   
     axis -90 7.62852e-016 20   XYZ
    dof rx
    limits (-90.0 20.0)
  end
  begin
     id 6 
     name rhipjoint
     direction -0.769387 -0.475875 0.426129   
     length 2.92756  
     axis 0 0 0  XYZ 
  end
  begin
     id 7 
     name rfemur
     direction -0.34202 -0.939693 0   
     length 6.35468   
     axis 0 0 -20   XYZ
    dof rx ry rz
    limits (-160.0 20.0)
           (-70.0 70.0)
           (-70.0 60.0)
  end
  begin
     id 8 
     name rtibia
     direction -0.34202 -0.939693 0   
     length 7.37886   
     axis 0 0 -20   XYZ
    dof rx
    limits (-10.0 170.0)
 end
 begin
     id 9 
     name rfoot
     direction -0.101763 -0.279592 0.954711   
     length 2.21478  
     axis -90 -7.62852e-016 -20   XYZ
    dof rx rz
    limits (-45.0 90.0)
           (-20.0 70.0)
  end
  begin
     id 10 
     name rtoes
     direction -1.53494e-011 -4.21851e-011 1   
     length 1.10506   
     axis -90 -7.62852e-016 -20   XYZ
    dof rx
    limits (-90.0 20.0)
  end
  begin
     id 11 
     name lowerback
     direction 0.00747405 0.999267 0.0375481   
     length 2.13259   
     axis 0 0 0   XYZ
    dof rx ry rz
    limits (-20.0 45.0)
           (-30.0 30.0)
           (-30.0 30.0)
  end
  begin
     id 12 
     name upperback
     direction 0.00661626 0.996177 0.0871029   
     length 2.10528   
     axis 0 0 0   XYZ
    dof rx ry rz
    limits (-20.0 45.0)
           (-30.0 30.0)
           (-30.0 30.0)
  end
  begin
     id 13 
     name thorax
     direction 0.00320659 0.997679 0.0680167   
     length 2.11338   
     axis 0 0 0   XYZ
    dof rx ry rz
    limits (-20.0 45.0)
           (-30.0 30.0)
           (-30.0 30.0)
  end
  begin
     id 14 
     name lowerneck
     direction 0.0374841 0.973033 0.227602   
     length 1.42765   
     axis 0 0 0   XYZ
    dof rx ry rz
    limits (-20.0 45.0)
           (-30.0 30.0)
           (-30.0 30.0)
  end
  begin
     id 15 
     name upperneck
     direction 0.00481585 0.989155 -0.146795   
     length 1.47593   
     axis 0 0 0   XYZ
    dof rx ry rz
    limits (-20.0 45.0)
           (-30.0 30.0)
           (-30.0 30.0)
  end
  begin
     id 16
     name head
     direction -0.00292522 0.997206 -0.0746423  
     length 1.48116  
     axis 0 0 0   XYZ
    dof rx ry rz
    limits (-20.0 45.0)
           (-30.0 30.0)
           (-30.0 30.0)
  end
  begin
     id 17 
     name lclavicle
     direction 0.951444 0.305606 0.0368784  
     length 3.01855  
     axis 0 0 0   XYZ
    dof ry rz
    limits (-20.0 10.0)
           (0.0 20.0)
  end
  begin
     id 18 
     name lhumerus
     direction 1 -4.48977e-011 2.61664e-027   
     length 5.52731   
     axis 180 -30 -90   XYZ
    dof rx ry rz
    limits (-60.0 90.0)
           (-90.0 90.0)
           (-90.0 90.0)
  end
  begin
     id 19
     name lradius
     direction 1 -4.48944e-011 8.22157e-027   
     length 3.11059   
     axis 180 -30 -90   XYZ
    dof rx
    limits (-10.0 170.0)
  end
  begin
     id 20
     name lwrist
     direction 1 -4.48976e-011 1.5779e-026   
     length 1.5553   
     axis -1.15221e-014 90 90   XYZ
    dof ry
    limits (-180.0 0.0)
 end
  begin
     id 21 
     name lhand
     direction 1 -4.49025e-011 3.1558e-026   
     length 0.419626   
     axis -2.01367e-014 90 90   XYZ
    dof rx rz
    limits (-90.0 90.0)
           (-45.0 45.0)
  end
  begin
     id 22 
     name lfingers
     direction 1 -4.4904e-011 6.31161e-026   
     length 0.338313   
     axis -4.02734e-014 90 90   XYZ
    dof rx
    limits (0.0 90.0)
  end
  begin
     id 23
     name lthumb
     direction 0.707107 -6.35004e-011 0.707107   
     length 0.485752   
     axis -90 45 2.85299e-015   XYZ
    dof rx rz
    limits (-45.0 45.0)
           (-45.0 45.0)
  end
  begin
     id 24 
     name rclavicle
     direction -0.968876 0.223791 0.105816   
     length 3.04177  
     axis 0 0 0   XYZ 
    dof ry rz
    limits (-10.0 20.0)
           (-20.0 0.0)
  end
  begin
     id 25 
     name rhumerus
     direction -1 -4.48962e-011 -1.01384e-027  
     length 5.25396   
     axis 180 30 90   XYZ
    dof rx ry rz
    limits (-90.0 60.0)
           (-90.0 90.0)
           (-90.0 90.0)
  end
  begin
     id 26 
     name rradius
     direction -1 -4.48955e-011 8.88542e-027   
     length 3.10567   
     axis 180 30 90   XYZ
    dof rx
    limits (-10.0 170.0)
  end
  begin
     id 27 
     name rwrist
     direction -1 -4.48994e-011 1.5779e-026   
     length 1.55283   
     axis -1.15221e-014 -90 -90   XYZ
    dof ry
    limits (-180.0 0.0)
  end
  begin
     id 28
     name rhand
     direction -1 -4.48891e-011 3.1558e-026   
     length 0.498676   
     axis -2.01367e-014 -90 -90   XYZ
    dof rx rz
    limits (-90.0 90.0)
           (-45.0 45.0)
  end
  begin
     id 29
     name rfingers
     direction -1 -4.48972e-011 6.31161e-026   
     length 0.402045   
     axis -4.02734e-014 -90 -90   XYZ
    dof rx
    limits (0.0 90.0)
  end
  begin
     id 30
     name rthumb
     direction -0.707107 -6.34849e-011 0.707107   
     length 0.577259   
     axis -90 -45 -2.85299e-015   XYZ
    dof rx rz
    limits (-45.0 45.0)
           (-45.0 45.0)
  end
:hierarchy
  begin
    root lhipjoint rhipjoint lowerback
    lhipjoint lfemur
    lfemur ltibia
    ltibia lfoot
    lfoot ltoes
    rhipjoint rfemur
    rfemur rtibia
    rtibia rfoot
    rfoot rtoes
    lowerback upperback
    upperback thorax
    thorax lowerneck lclavicle rclavicle
    lowerneck upperneck
    upperneck head
    lclavicle lhumerus
    lhumerus lradius
    lradius lwrist
    lwrist lhand lthumb
    lhand lfingers
    rclavicle rhumerus
    rhumerus rradius
    rradius rwrist
    rwrist rhand rthumb
    rhand rfingers
  end

#!OML:ASF H:\Pregnant\Project 1\Capture day 1\Session 1\femalepreg.ASF
:FULLY-SPECIFIED
:DEGREES
49
root 3.52299 9.57733 5.82142 11.3389 -2.77946 14.1395
lowerback 5.52998 1.35723 -21.5215
upperback -1.52847 -0.0138339 -5.00223
thorax -4.88967 0.539017 6.51932
lowerneck -30.5883 -6.54875 -4.77498
upperneck 13.4855 -8.49464 7.51924
head 9.71168 -3.27074 2.00666
rclavicle 1.72943e-014 3.4191e-014
rhumerus -21.522 21.3868 -91.3074
rradius 97.5916
rwrist -29.2867
rhand -1.8044 -23.6594
rfingers 7.12502
rthumb 23.861 -52.1973
lclavicle 1.72943e-014 3.4191e-014
lhumerus -24.9997 -18.0568 89.4659
lradius 100.071
lwrist 59.0264
lhand -38.7055 10.4131
lfingers 7.12502
lthumb -11.7197 40.0653
rfemur -111.595 -27.1933 8.62018
rtibia 101.99
rfoot -2.11627 7.41211
rtoes 0.0284239
lfemur -96.2488 14.774 -32.4905
ltibia 84.2897
lfoot 2.00072 -11.0216
ltoes -10.141
50
root 3.52608 9.59665 5.86623 12.624 -3.03535 14.8378
lowerback 4.99194 1.21647 -21.7987
upperback -1.81661 -0.123152 -5.18171
thorax -4.87934 0.50899 6.47617
lowerneck -30.7874 -6.55493 -4.85563
upperneck 12.8828 -8.4444 7.67178
head 9.53499 -3.24151 2.0819
rclavicle -1.98785e-015 5.00937e-014
rhumerus -21.9546 21.5689 -91.5776
rradius 97.213
rwrist -29.1564
rhand -1.99781 -23.702
rfingers 7.12502
rthumb 23.6755 -52.264
lclavicle -1.98785e-015 5.00937e-014
lhumerus -25.6392 -18.0257 89.6852
lradius 99.7501
lwrist 58.8539
lhand -38.9722 10.6631
lfingers 7.12502
lthumb -11.9769 40.3004
rfemur -113.221 -27.5494 8.5674
rtibia 101.991
rfoot -2.136 7.53876
rtoes 0.435524
lfemur -97.2398 14.4652 -33.5807
ltibia 84.0361
lfoot 2.04553 -10.9327
ltoes -9.9428
51
root 3.52907 9.61225 5.91138 13.9482 -3.29718 15.4581
lowerback 4.43333 1.067 -21.9845
upperback -2.1207 -0.231164 -5.34457
thorax -4.87418 0.478957 6.40153
lowerneck -30.9712 -6.55314 -4.87216
upperneck 12.2693 -8.38655 7.72245
head 9.34329 -3.21841 2.11265
rclavicle 1.74931e-014 -2.54444e-014
rhumerus -22.3908 21.7294 -91.8408
rradius 96.8467
rwrist -29.0378
rhand -2.21759 -23.7948
rfingers 7.12502
rthumb 23.4647 -52.384
lclavicle 1.74931e-014 -2.54444e-014
lhumerus -26.2781 -18.0166 89.918
lradius 99.4503
lwrist 58.7295
lhand -39.2815 10.8534
lfingers 7.12502
lthumb -12.2751 40.4731
rfemur -114.899 -27.8833 8.61526
rtibia 101.993
rfoot -2.11638 7.60572
rtoes 0.944891
lfemur -98.3247 14.1504 -34.6069
ltibia 83.8333
lfoot 2.06994 -10.8576
ltoes -9.85799
52
root 3.53186 9.62453 5.95714 15.328 -3.5751 15.9891
lowerback 3.82593 0.906479 -22.0792
upperback -2.44071 -0.334015 -5.48638
thorax -4.85874 0.449224 6.3008
lowerneck -31.1465 -6.5314 -4.76415
upperneck 11.643 -8.31748 7.6073
head 9.13062 -3.20442 2.06804
rclavicle 2.48481e-015 9.85972e-014
rhumerus -22.8247 21.8759 -92.0978
rradius 96.5019
rwrist -28.9403
rhand -2.44921 -23.9467
rfingers 7.12502
rthumb 23.2425 -52.5641
lclavicle 2.48481e-015 9.85972e-014
lhumerus -26.9025 -18.0281 90.1574
lradius 99.1555
lwrist 58.649
lhand -39.6069 10.8067
lfingers 7.12502
lthumb -12.5888 40.4074
rfemur -116.64 -28.1724 8.77639
rtibia 101.99
rfoot -2.05305 7.59746
rtoes 1.52434
lfemur -99.5246 13.8414 -35.5658
ltibia 83.6869
lfoot 2.07257 -10.7996
ltoes -9.85316
53
root 3.53485 9.63507 6.0046 16.7932 -3.88899 16.4342
lowerback 3.11822 0.730223 -22.0931
upperback -2.77637 -0.424896 -5.60869
thorax -4.80462 0.420499 6.17744
lowerneck -31.3499 -6.49072 -4.55972
upperneck 11.0245 -8.23901 7.37151
head 8.91427 -3.19503 1.96822
rclavicle -2.69353e-014 2.78299e-014
rhumerus -23.236 22.022 -92.3425
rradius 96.1768
rwrist -28.8814
rhand -2.70194 -24.1429
rfingers 7.12502
rthumb 23 -52.7906
lclavicle -2.69353e-014 2.78299e-014
lhumerus -27.4937 -18.0533 90.3958
lradius 98.8839
lwrist 58.6548
lhand -39.9806 10.5644
lfingers 7.12502
lthumb -12.9491 40.1426
rfemur -118.465 -28.3977 9.0524
rtibia 101.966
rfoot -1.93835 7.51036
rtoes 2.18811
lfemur -100.86 13.5458 -36.4755
ltibia 83.5919
lfoot 2.04638 -10.7547
ltoes -9.89544
54
root 3.5385 9.64451 6.054 18.3404 -4.24442 16.8227
lowerback 2.30979 0.541756 -22.0511
upperback -3.13352 -0.503093 -5.72171
thorax -4.7188 0.394568 6.03299
lowerneck -31.5592 -6.43638 -4.30244
upperneck 10.4107 -8.15333 7.06553
head 8.69484 -3.1881 1.83797
rclavicle 2.13694e-014 -4.09496e-014
rhumerus -23.642 22.1634 -92.5768
rradius 95.8775
rwrist -28.8676
rhand -2.97101 -24.3692
rfingers 7.12502
rthumb 22.7418 -53.0489
lclavicle 2.13694e-014 -4.09496e-014
lhumerus -28.0625 -18.0903 90.6313
lradius 98.6393
lwrist 58.7233
lhand -40.3657 10.1767
lfingers 7.12502
lthumb -13.3203 39.731
rfemur -120.371 -28.5687 9.4105
rtibia 101.914
rfoot -1.75881 7.36928
rtoes 2.86999
lfemur -102.312 13.2573 -37.3695
ltibia 83.5351
lfoot 1.99065 -10.7213
ltoes -9.95236
55
root 3.54295 9.65316 6.10468 19.928 -4.62512 17.1934
lowerback 1.46446 0.339415 -21.9889
upperback -3.49402 -0.588948 -5.83191
thorax -4.61309 0.362402 5.88024
lowerneck -31.8767 -6.38776 -4.25802
upperneck 9.86605 -8.04442 7.02689
head 8.53871 -3.1439 1.83638
rclavicle 1.18277e-014 -1.35174e-014
rhumerus -24.0101 22.3349 -92.7957
rradius 95.6022
rwrist -28.9107
rhand -3.24732 -24.6307
rfingers 7.12502
rthumb 22.4766 -53.3427
lclavicle 1.18277e-014 -1.35174e-014
lhumerus -28.5782 -18.1115 90.8396
lradius 98.4283
lwrist 58.8405
lhand -40.7862 9.83023
lfingers 7.12502
lthumb -13.7256 39.3575
rfemur -122.315 -28.7192 9.79865
rtibia 101.837
rfoot -1.51236 7.21468
rtoes 3.49596
lfemur -103.812 12.9579 -38.2758
ltibia 83.4957
lfoot 1.90943 -10.7028
ltoes -10.0088
56
root 3.54872 9.66256 6.15627 21.5081 -5.03126 17.5911
lowerback 0.625383 0.131357 -21.9426
upperback -3.8484 -0.684569 -5.9516
thorax -4.50251 0.32464 5.72403
lowerneck -32.2408 -6.32297 -4.23371
upperneck 9.34224 -7.91379 7.02721
head 8.39829 -3.08408 1.85459
rclavicle -2.66371e-014 5.84427e-014
rhumerus -24.3522 22.5288 -93.0018
rradius 95.3571
rwrist -29.0041
rhand -3.53332 -24.9141
rfingers 7.12502
rthumb 22.202 -53.659
lclavicle -2.66371e-014 5.84427e-014
lhumerus -29.0506 -18.1161 91.0183
lradius 98.258
lwrist 58.9701
lhand -41.2194 9.62311
lfingers 7.12502
lthumb -14.143 39.1217
rfemur -124.241 -28.8764 10.1569
rtibia 101.729
rfoot -1.20838 7.09161
rtoes 4.01526
lfemur -105.279 12.6404 -39.2282
ltibia 83.4515
lfoot 1.79538 -10.6939
ltoes -10.0559
57
root 3.55585 9.67231 6.20837 23.0573 -5.44752 18.0461
lowerback -0.164561 -0.0868651 -21.9342
upperback -4.19213 -0.807632 -6.08579
thorax -4.40315 0.274498 5.57064
lowerneck -32.6678 -6.2424 -4.29859
upperneck 8.84226 -7.74808 7.15156
head 8.28308 -2.99467 1.93476
rclavicle 3.47873e-014 -2.78299e-014
rhumerus -24.6668 22.7613 -93.1979
rradius 95.1477
rwrist -29.1384
rhand -3.84546 -25.2067
rfingers 7.12502
rthumb 21.9024 -53.987
lclavicle 3.47873e-014 -2.78299e-014
lhumerus -29.4703 -18.089 91.1571
lradius 98.1287
lwrist 59.076
lhand -41.697 9.75947
lfingers 7.12502
lthumb -14.6033 39.2253
rfemur -126.136 -29.0774 10.4579
rtibia 101.6
rfoot -0.852404 7.0501
rtoes 4.37075
lfemur -106.674 12.285 -40.2469
ltibia 83.3901
lfoot 1.65576 -10.6986
ltoes -10.0876
58
root 3.56382 9.68178 6.25959 24.5199 -5.85903 18.5543
lowerback -0.845515 -0.305193 -21.9608
upperback -4.51341 -0.959154 -6.22746
thorax -4.33637 0.212713 5.42605
lowerneck -33.1157 -6.12855 -4.24539
upperneck 8.34122 -7.56096 7.13792
head 8.15634 -2.90603 1.95251
rclavicle -1.44119e-014 5.40694e-014
rhumerus -24.9654 23.0128 -93.3854
rradius 94.9792
rwrist -29.2841
rhand -4.15503 -25.4903
rfingers 7.12502
rthumb 21.6051 -54.3051
lclavicle -1.44119e-014 5.40694e-014
lhumerus -29.8557 -18.047 91.2659
lradius 98.0624
lwrist 59.2057
lhand -42.1072 10.132
lfingers 7.12502
lthumb -14.9984 39.5689
rfemur -127.944 -29.328 10.6889
rtibia 101.456
rfoot -0.463711 7.11653
rtoes 4.54822
lfemur -107.946 11.901 -41.3095
ltibia 83.3086
lfoot 1.5038 -10.7203
ltoes -10.1049
59
root 3.57225 9.69142 6.31049 25.9131 -6.27504 19.1036
lowerback -1.44716 -0.521597 -22.0158
upperback -4.82073 -1.12882 -6.37616
thorax -4.2973 0.144226 5.2866
lowerneck -33.5431 -5.97898 -4.01601
upperneck 7.8176 -7.36327 6.90955
head 7.99989 -2.83191 1.87103
rclavicle 3.69739e-014 1.15295e-014
rhumerus -25.2641 23.2615 -93.5688
rradius 94.8552
rwrist -29.4128
rhand -4.45896 -25.749
rfingers 7.12502
rthumb 21.3132 -54.597
lclavicle 3.69739e-014 1.15295e-014
lhumerus -30.2192 -18.0017 91.3501
lradius 98.0597
lwrist 59.3724
lhand -42.4844 10.7562
lfingers 7.12502
lthumb -15.3618 40.1655
rfemur -129.682 -29.6128 10.8677
rtibia 101.295
rfoot -0.0645124 7.28878
rtoes 4.5479
lfemur -109.115 11.4993 -42.4138
ltibia 83.2088
lfoot 1.34204 -10.7651
ltoes -10.0959
60
root 3.58084 9.70237 6.36201 27.2704 -6.71251 19.6782
lowerback -2.01868 -0.738435 -22.0943
upperback -5.12461 -1.30687 -6.52943
thorax -4.27185 0.073114 5.1518
lowerneck -33.9668 -5.79284 -3.61577
upperneck 7.29549 -7.15607 6.46766
head 7.81395 -2.77346 1.703
rclavicle -2.33572e-014 -5.80451e-014
rhumerus -25.5744 23.4909 -93.7529
rradius 94.7785
rwrist -29.496
rhand -4.72921 -25.9807
rfingers 7.12502
rthumb 21.0536 -54.8578
lclavicle -2.33572e-014 -5.80451e-014
lhumerus -30.5706 -17.954 91.4084
lradius 98.1158
lwrist 59.5872
lhand -42.7854 11.5468
lfingers 7.12502
lthumb -15.6517 40.9337
rfemur -131.379 -29.9085 11.0171
rtibia 101.111
rfoot 0.326146 7.5444
rtoes 4.38526
lfemur -110.217 11.0903 -43.5607
ltibia 83.0929
lfoot 1.16749 -10.8365
ltoes -10.0712
61
root 3.58938 9.71486 6.41468 28.615 -7.17663 20.2545
lowerback -2.5907 -0.958548 -22.1779
upperback -5.42752 -1.48816 -6.68528
thorax -4.24615 0.000163711 5.01399
lowerneck -34.3787 -5.60899 -3.2544
upperneck 6.76379 -6.95277 6.07781
head 7.6408 -2.71235 1.54616
rclavicle 9.64106e-015 -1.96797e-014
rhumerus -25.8863 23.703 -93.9422
rradius 94.7419
rwrist -29.5252
rhand -4.96796 -26.1759
rfingers 7.12502
rthumb 20.8242 -55.0784
lclavicle 9.64106e-015 -1.96797e-014
lhumerus -30.9086 -17.9049 91.4352
lradius 98.238
lwrist 59.9072
lhand -43.0523 12.4339
lfingers 7.12502
lthumb -15.9087 41.8005
rfemur -133.055 -30.197 11.1664
rtibia 100.902
rfoot 0.693167 7.85411
rtoes 4.06994
lfemur -111.285 10.6798 -44.7365
ltibia 82.9664
lfoot 0.981991 -10.936
ltoes -10.0182
62
root 3.5979 9.72887 6.46904 29.9678 -7.67237 20.8189
lowerback -3.19489 -1.18501 -22.2567
upperback -5.7258 -1.66653 -6.84353
thorax -4.19924 -0.0741326 4.86785
lowerneck -34.8161 -5.41127 -2.85108
upperneck 6.23554 -6.75014 5.65587
head 7.47056 -2.65409 1.37187
rclavicle 1.8487e-014 4.47266e-014
rhumerus -26.184 23.8939 -94.1337
rradius 94.7455
rwrist -29.4984
rhand -5.1781 -26.324
rfingers 7.12502
rthumb 20.6223 -55.2485
lclavicle 1.8487e-014 4.47266e-014
lhumerus -31.2195 -17.8516 91.4216
lradius 98.4086
lwrist 60.2998
lhand -43.2973 13.2969
lfingers 7.12502
lthumb -16.1447 42.6445
rfemur -134.733 -30.4677 11.3358
rtibia 100.67
rfoot 1.02994 8.18589
rtoes 3.60318
lfemur -112.345 10.2682 -45.9374
ltibia 82.8353
lfoot 0.785998 -11.065
ltoes -9.94591
63
root 3.60654 9.74413 6.52503 31.328 -8.19642 21.3692
lowerback -3.82032 -1.42692 -22.3331
upperback -6.01675 -1.85661 -7.00173
thorax -4.13091 -0.157036 4.71707
lowerneck -35.3701 -5.21603 -2.59868
upperneck 5.78282 -6.5296 5.45558
head 7.35721 -2.56351 1.29884
rclavicle -3.71727e-014 7.65321e-014
rhumerus -26.4489 24.0981 -94.3364
rradius 94.7799
rwrist -29.4328
rhand -5.34955 -26.44
rfingers 7.12502
rthumb 20.4575 -55.3823
lclavicle -3.71727e-014 7.65321e-014
lhumerus -31.4938 -17.7711 91.3523
lradius 98.6018
lwrist 60.7043
lhand -43.5236 14.1158
lfingers 7.12502
lthumb -16.3626 43.4455
rfemur -136.412 -30.7239 11.5274
rtibia 100.418
rfoot 1.33468 8.52
rtoes 2.96653
lfemur -113.399 9.85046 -47.1588
ltibia 82.7041
lfoot 0.576824 -11.221
ltoes -9.86882
